<svg width="424" height="513" viewBox="0 0 424 513" fill="none" xmlns="http://www.w3.org/2000/svg">
<path d="M420.73 470.49C419.73 466.87 418.73 463.21 416.73 460.06C414.875 457.389 412.673 454.978 410.18 452.89C402.93 446.31 394.03 439.63 384.42 441.29C381.448 441.947 378.576 442.997 375.88 444.41C374.48 445.06 373.07 445.71 371.63 446.26C367.576 447.955 363.096 448.346 358.81 447.38C356.61 446.79 354.56 445.73 352.39 445.07C351.36 444.76 350.306 444.533 349.24 444.39C351.337 443.451 353.371 442.379 355.33 441.18C366.11 434.58 374.71 422.65 373.51 409.89C373.1 405.6 371.63 401.49 370.17 397.44L366.33 386.82C364.67 382.22 362.95 377.53 359.92 373.71C356.55 369.45 351.75 366.56 346.79 364.41C336.14 359.78 324.5 358.15 313.01 356.57L312.21 356.46V232.33C312.21 230.208 311.367 228.173 309.867 226.673C308.367 225.173 306.332 224.33 304.21 224.33H289.11C288.443 220.25 287.777 216.177 287.11 212.11C285.21 200.5 283.24 188.68 277.89 178.23C274.39 171.39 268.82 164.86 261.31 163.52C259.834 163.387 258.384 163.05 257 162.52C254.8 161.44 253.6 159.04 251.91 157.27C247.55 152.7 240.46 152.63 234.62 150.27C229.46 148.22 225.24 144.36 220.54 141.39C215.84 138.42 210 136.31 204.8 138.24C204.8 138.62 204.73 139 204.69 139.37L201.35 137.83C197.75 136.16 194.08 134.45 191.19 131.71C187.48 128.21 185.5 123.57 183.96 118.64C183.8 118.13 183.65 117.64 183.49 117.09C189.882 110.569 194.209 102.308 195.93 93.34L196.74 95.97C196.922 96.5609 197.136 97.1417 197.38 97.71C197.793 98.8089 198.482 99.7834 199.38 100.54C199.636 100.741 199.919 100.906 200.22 101.03C200.496 101.14 200.785 101.213 201.08 101.25C201.495 101.301 201.916 101.271 202.32 101.16C202.996 100.951 203.617 100.592 204.136 100.111C204.655 99.6299 205.06 99.0383 205.32 98.38C205.479 97.9868 205.597 97.5779 205.67 97.16C205.709 96.9083 205.732 96.6545 205.74 96.4C205.74 96.32 205.74 96.24 205.74 96.16C205.74 96.08 205.74 95.81 205.74 95.64C205.74 95.47 205.74 95.46 205.74 95.36C205.74 95.26 205.74 95.03 205.69 94.86V94.6C205.69 94.4 205.63 94.2 205.59 94.01C205.55 93.82 205.59 93.9 205.59 93.85C205.54 93.6 205.48 93.34 205.43 93.09C205.43 93.03 205.43 92.96 205.43 92.9C205.43 92.84 205.34 92.49 205.29 92.28C205.24 92.07 205.22 92.01 205.19 91.87V91.81C205.09 91.41 205 91.02 204.91 90.62C204.183 87.1494 203.998 83.5873 204.36 80.06C204.958 74.8835 205.914 69.7546 207.22 64.71L207.43 63.8C207.51 63.45 207.59 63.1 207.66 62.74C207.82 62.02 207.98 61.3 208.13 60.57L208.49 58.73L208.76 57.09V56.88C209.321 53.1638 209.439 49.394 209.11 45.65V45.65C208.65 40.42 207.03 35.47 203.48 31.53C200.97 28.74 197.66 26.68 195.33 23.75C193.15 21.01 191.92 17.63 189.66 14.94C183.42 7.48999 167.4 1.74999 157.57 0.749986C146.31 -0.390014 128.12 2.48997 119.04 9.13997C115.68 11.59 113.38 15.14 111.04 18.5C106.74 24.75 101.86 30.99 94.97 34.5C92.37 35.82 89.39 36.82 87.66 39.12C86.6308 40.6791 85.9644 42.4492 85.71 44.3C84.3851 50.8112 83.6952 57.4355 83.65 64.08V64.08C83.65 64.91 83.65 65.74 83.65 66.58C83.6705 69.0712 84.2014 71.5319 85.21 73.81C85.37 74.15 85.55 74.48 85.74 74.81L85.86 75.02C87.0695 76.7489 88.1395 78.5713 89.06 80.47C89.2893 81.0017 89.4538 81.559 89.55 82.13C89.7213 83.5949 89.6264 85.0788 89.27 86.51V86.51C89.27 86.73 89.18 86.95 89.14 87.17L89.05 87.6C89.05 87.75 89.05 87.9 88.97 88.04C88.89 88.47 88.82 88.9 88.76 89.32C88.6084 90.4767 88.6831 91.6518 88.98 92.78C89.1169 93.4086 89.3856 94.0009 89.7682 94.5181C90.1509 95.0352 90.6389 95.4653 91.2 95.78C91.7696 96.0531 92.3759 96.2418 93 96.34C93.63 96.45 94.27 96.52 94.89 96.66C95.6873 96.8417 96.4572 97.1275 97.18 97.51C97.8724 97.8413 98.5208 98.2579 99.11 98.75C99.4015 99.0149 99.6785 99.2953 99.94 99.59C100.468 100.195 100.943 100.844 101.36 101.53C101.573 101.883 101.773 102.243 101.96 102.61C102.677 104.057 103.249 105.571 103.67 107.13C103.93 108.06 104.15 109 104.34 109.94C104.43 110.36 104.51 110.78 104.58 111.19C104.65 111.6 104.72 112.02 104.78 112.43C105.053 112.414 105.322 112.361 105.58 112.27C107.05 111.74 107.87 110.03 108.33 108.37C108.41 108.09 108.48 107.82 108.54 107.55C108.77 106.55 109.01 105.45 109.24 104.4C113.182 112.771 119.538 119.771 127.49 124.5C127.77 125.33 128.04 126.15 128.28 126.99C129.59 131.52 130.22 136.26 127.95 140.22C126.33 143.03 123.61 144.76 120.57 145.96C120.132 145.376 119.568 144.897 118.92 144.56C116.29 143.24 113.13 144.84 110.92 146.81C106.92 150.43 103.66 155.62 98.4 156.81C96.5 157.25 94.4 157.16 92.82 158.32C91.775 159.303 90.8998 160.452 90.23 161.72C89.0886 163.359 87.5537 164.685 85.7662 165.576C83.9787 166.467 81.9959 166.895 80 166.82C78.17 166.73 76 166.31 74.75 167.65C73.82 168.65 73.75 170.23 72.75 171.18C71.41 172.5 69.21 171.86 67.34 171.78C63.78 171.63 60.47 173.93 58.44 176.88C56.41 179.83 55.44 183.36 54.44 186.88V186.94C54.1834 187.127 53.9395 187.331 53.71 187.55C52.7404 188.583 51.9888 189.8 51.5 191.13C43.4129 209.542 38.6397 229.238 37.4 249.31C37.4197 250.288 37.2 251.256 36.76 252.13C36.3126 252.701 35.8211 253.236 35.29 253.73C34.8148 254.312 34.4613 254.983 34.2504 255.704C34.0395 256.425 33.9755 257.181 34.0622 257.927C34.149 258.673 34.3847 259.394 34.7553 260.047C35.126 260.701 35.624 261.273 36.22 261.73C36.5077 261.208 36.868 260.73 37.29 260.31C37.18 260.77 37.08 261.22 37.01 261.63C36.6083 264.547 36.5714 267.503 36.9 270.43C37.8466 284.323 38.8033 298.207 39.77 312.08C40.04 316.01 40.31 319.93 40.67 323.85C41.37 331.437 42.37 338.993 43.67 346.52C43.73 346.86 43.8 347.21 43.89 347.52C35.74 350.11 28.49 354.79 25.44 362.6C24.38 365.3 23.9 368.24 22.6 370.83C21.17 373.67 18.82 375.94 17.26 378.72C14.57 383.5 14.45 389.36 15.43 394.72C17.32 405.17 22.97 414.51 30.43 422.11C30.1 422.11 29.76 422.11 29.43 422.11C26.9927 422.38 24.6531 423.219 22.6 424.56C6.81998 433.78 -2.20002 453.56 1.08998 471.62C1.73998 475.15 2.86998 478.73 5.22998 481.42C7.19163 483.558 9.71386 485.104 12.51 485.88C14.2586 486.406 16.0591 486.741 17.88 486.88C30.18 487.88 42.09 482.18 54.42 481.7C58.5045 481.635 62.5892 481.825 66.65 482.27C72.59 482.763 78.54 483.077 84.5 483.21C94.19 483.44 99.64 480.86 105.82 473.62C107.339 471.819 108.607 469.821 109.59 467.68C114.85 467.38 120.66 466.92 124.86 466.58L124.92 467.16C125.15 469.16 125.5 471.46 127.1 472.72C128 473.341 129.023 473.76 130.1 473.95C140.2 476.43 150.42 478.95 160.82 478.95C165.7 478.851 170.572 478.478 175.41 477.83L193.68 475.72C199.004 476.395 204.258 477.539 209.38 479.14C214.66 480.93 219.59 483.59 224.75 485.7C236.75 490.56 249.65 492.3 262.43 494C264.61 494.29 267.11 494.49 268.72 493C270.8 491 270.11 487.66 269.52 484.86C269.28 483.71 269.1 482.56 268.96 481.4C277.584 483.673 286.022 486.602 294.2 490.16L295.63 490.79C296.05 492.97 298.06 494.71 299.99 497.06C300.624 498.052 301.365 498.971 302.2 499.8C303.154 500.42 304.239 500.81 305.37 500.94C318.861 503.454 332.637 504.076 346.3 502.79C349.096 502.409 351.924 502.312 354.74 502.5C356.809 502.782 358.849 503.24 360.84 503.87L372.41 507.19C380.94 509.63 389.67 512.1 398.52 511.55C400.314 511.437 402.097 511.18 403.85 510.78C410.85 509.16 417.37 505.25 420.73 498.96C425.48 490.41 423.29 479.89 420.73 470.49Z" fill="url(#paint0_linear)"/>
<path d="M97.02 468.54C94.91 463.74 92.91 458.22 95.02 453.42C96.3973 450.593 98.7633 448.37 101.67 447.17C104.546 445.997 107.578 445.249 110.67 444.95C120.374 443.677 130.194 443.543 139.93 444.55C140.64 450.17 139.14 455.87 137.85 461.3C136.68 466.3 136.01 467.04 130.85 467.3C127.51 467.48 97.81 470.31 97.02 468.54Z" fill="#FBBEBE"/>
<path d="M186.07 436.16C265.047 436.16 329.07 418.251 329.07 396.16C329.07 374.069 265.047 356.16 186.07 356.16C107.093 356.16 43.07 374.069 43.07 396.16C43.07 418.251 107.093 436.16 186.07 436.16Z" fill="#464353"/>
<path opacity="0.1" d="M186.07 436.16C265.047 436.16 329.07 418.251 329.07 396.16C329.07 374.069 265.047 356.16 186.07 356.16C107.093 356.16 43.07 374.069 43.07 396.16C43.07 418.251 107.093 436.16 186.07 436.16Z" fill="black"/>
<path d="M211.71 185C206.808 194.472 198.667 201.867 188.77 205.84C182.927 207.969 176.777 209.138 170.56 209.3C163.77 209.61 156.84 209.17 150.46 206.85C141.9 203.75 134.79 197.41 129.46 190.02C124.13 182.63 120.46 174.19 117.27 165.68C115.59 161.25 113.99 156.53 114.78 151.85C119.93 150.68 125.57 148.96 128.23 144.39C130.5 140.47 129.87 135.77 128.56 131.29C128.19 130.02 127.76 128.76 127.33 127.55C126.33 124.65 122.88 119.14 125.33 116.66C126.86 115.09 133.27 114.29 135.48 113.27C142.29 110.13 148.57 105.59 156.05 104.1C162.52 102.81 169.2 104.02 175.66 105.36C176.517 105.485 177.34 105.78 178.08 106.23C178.924 106.941 179.548 107.878 179.88 108.93C181.72 113.41 182.8 118.36 184.28 123.03C185.82 127.92 187.8 132.51 191.51 135.98C194.4 138.69 198.08 140.39 201.68 142.04L210.54 146.1C212.116 146.69 213.545 147.615 214.73 148.81C215.889 150.403 216.581 152.286 216.73 154.25C218.318 164.773 216.562 175.528 211.71 185V185Z" fill="#FBBEBE"/>
<path opacity="0.1" d="M184.24 123.03C177.185 130.376 167.891 135.172 157.816 136.667C147.741 138.162 137.454 136.271 128.57 131.29C128.2 130.02 127.77 128.76 127.34 127.55C126.34 124.65 122.89 119.14 125.34 116.66C126.87 115.09 133.28 114.29 135.49 113.27C142.3 110.13 148.58 105.59 156.06 104.1C162.53 102.81 169.21 104.02 175.67 105.36C176.527 105.485 177.35 105.78 178.09 106.23C178.934 106.941 179.558 107.878 179.89 108.93C181.68 113.41 182.76 118.36 184.24 123.03Z" fill="black"/>
<path d="M151.07 135.16C176.475 135.16 197.07 114.565 197.07 89.16C197.07 63.7549 176.475 43.16 151.07 43.16C125.665 43.16 105.07 63.7549 105.07 89.16C105.07 114.565 125.665 135.16 151.07 135.16Z" fill="#FBBEBE"/>
<path d="M291.22 238.45L287.44 215.55C285.53 204.06 283.56 192.35 278.22 182C274.71 175.22 269.14 168.76 261.63 167.42C260.151 167.288 258.697 166.952 257.31 166.42C255.11 165.36 253.91 162.98 252.22 161.22C247.86 156.7 240.76 156.63 234.92 154.33C229.76 152.33 225.54 148.48 220.84 145.54C216.14 142.6 210.29 140.54 205.09 142.42C204.25 151.37 203.36 160.52 199.56 168.67C197.087 173.976 193.459 178.662 188.942 182.385C184.424 186.108 179.132 188.775 173.452 190.189C167.771 191.604 161.847 191.731 156.111 190.562C150.375 189.392 144.973 186.956 140.3 183.43C131.39 176.72 125.68 166.37 123.02 155.54C122.37 152.9 121.63 149.87 119.2 148.66C116.57 147.34 113.41 148.94 111.2 150.88C107.2 154.47 103.93 159.61 98.67 160.82C96.77 161.26 94.67 161.17 93.09 162.32C92.0399 163.289 91.1609 164.428 90.49 165.69C89.339 167.316 87.801 168.631 86.015 169.514C84.2291 170.397 82.2512 170.822 80.26 170.75C78.43 170.66 76.26 170.24 75.01 171.57C74.08 172.57 74.01 174.13 73.01 175.06C71.66 176.37 69.47 175.73 67.59 175.66C64.03 175.51 60.72 177.79 58.68 180.66C56.64 183.53 55.68 187.08 54.68 190.52C65.61 214.86 75.61 239.23 86.54 263.57C87.0521 264.487 87.3238 265.519 87.33 266.57C87.1108 267.66 86.6456 268.686 85.97 269.57C80.61 278.18 80.78 289.01 81.37 299.13C81.96 309.25 82.68 319.94 78.16 329.01C76.93 331.5 75.33 333.78 74.16 336.27C71.42 341.91 70.43 359.95 72.03 366.01H298.11C293.8 354.16 295.44 330.38 296.34 317.8C296.97 309 295.34 300.21 294.64 291.41C293.11 273.44 294.19 256.39 291.22 238.45Z" fill="#313541"/>
<path d="M37.36 264.65C36.9599 267.544 36.9196 270.476 37.24 273.38L40.11 314.65C40.38 318.54 40.65 322.42 41.01 326.3C41.7 333.83 42.73 341.3 44.01 348.76C44.0388 349.819 44.4867 350.824 45.2554 351.553C46.0241 352.282 47.0507 352.677 48.11 352.65C60.76 355.33 73.83 355.22 86.74 354.49C106.44 353.39 126.11 350.88 145.84 351.31C150.92 351.42 156.84 351.31 159.92 347.31C163 343.31 161.21 336.84 157.19 333.61C153.17 330.38 147.71 329.61 142.55 329.61C135.72 329.54 128.89 330.51 122.08 330.11C115.83 329.74 109.72 328.23 103.66 326.72L86.66 322.49C87.31 317.34 89.27 312.49 91.13 307.6C94.47 298.93 97.59 289.97 97.65 280.68C97.71 271.39 94.21 261.62 86.6 256.3C80.34 251.93 72.28 251.12 64.65 251.3C59.1 251.46 49.51 250.13 44.44 252.3C40.43 254.06 38.11 260.72 37.36 264.65Z" fill="#FBBEBE"/>
<path d="M302.79 359.01C306.12 357.74 309.79 358.2 313.36 358.68C324.85 360.25 336.51 361.86 347.16 366.45C352.16 368.59 356.92 371.45 360.3 375.66C363.3 379.45 365.05 384.09 366.71 388.66L370.55 399.18C372.01 403.18 373.49 407.26 373.9 411.51C375.1 424.1 366.49 435.97 355.66 442.51C344.83 449.05 332.08 451.38 319.66 453.82C307.24 456.26 294.77 458.96 282.4 461.82C276.63 463.317 270.777 464.469 264.87 465.27C251.63 466.77 237.79 464.56 225.21 468.94C220.21 470.69 215.3 473.29 210.11 474.5C206.663 475.225 203.177 475.756 199.67 476.09L175.86 478.81C171.018 479.458 166.144 479.832 161.26 479.93C150.86 479.93 140.63 477.47 130.53 475.01C129.456 474.822 128.434 474.409 127.53 473.8C125.93 472.54 125.58 470.31 125.35 468.29C124.33 459.35 123.437 450.4 122.67 441.44C122.43 438.53 122.25 435.38 123.84 432.93C125.84 429.93 129.74 428.99 133.3 428.41C148.396 425.941 163.688 424.879 178.98 425.24C184.79 419.43 194.37 419.4 201.98 416.24C204.78 414.954 207.489 413.481 210.09 411.83C223.703 403.888 238.915 399.081 254.62 397.76C257.696 397.666 260.751 397.23 263.73 396.46C269.62 394.63 274.99 389.65 281.04 390.87C281.79 388.8 282.31 386.03 284.04 384.61C284.9 383.88 285.96 383.39 286.75 382.61C288.42 380.92 288.57 378.26 288.32 375.9C288.07 373.54 287.51 371.12 288.12 368.82C288.374 367.949 288.747 367.118 289.23 366.35C292.23 361.17 296.76 358.51 302.79 359.01Z" fill="#464353"/>
<path opacity="0.05" d="M302.79 359.01C306.12 357.74 309.79 358.2 313.36 358.68C324.85 360.25 336.51 361.86 347.16 366.45C352.16 368.59 356.92 371.45 360.3 375.66C363.3 379.45 365.05 384.09 366.71 388.66L370.55 399.18C372.01 403.18 373.49 407.26 373.9 411.51C375.1 424.1 366.49 435.97 355.66 442.51C344.83 449.05 332.08 451.38 319.66 453.82C307.24 456.26 294.77 458.96 282.4 461.82C276.63 463.317 270.777 464.469 264.87 465.27C251.63 466.77 237.79 464.56 225.21 468.94C220.21 470.69 215.3 473.29 210.11 474.5C206.663 475.225 203.177 475.756 199.67 476.09L175.86 478.81C171.018 479.458 166.144 479.832 161.26 479.93C150.86 479.93 140.63 477.47 130.53 475.01C129.456 474.822 128.434 474.409 127.53 473.8C125.93 472.54 125.58 470.31 125.35 468.29C124.33 459.35 123.437 450.4 122.67 441.44C122.43 438.53 122.25 435.38 123.84 432.93C125.84 429.93 129.74 428.99 133.3 428.41C148.396 425.941 163.688 424.879 178.98 425.24C184.79 419.43 194.37 419.4 201.98 416.24C204.78 414.954 207.489 413.481 210.09 411.83C223.703 403.888 238.915 399.081 254.62 397.76C257.696 397.666 260.751 397.23 263.73 396.46C269.62 394.63 274.99 389.65 281.04 390.87C281.79 388.8 282.31 386.03 284.04 384.61C284.9 383.88 285.96 383.39 286.75 382.61C288.42 380.92 288.57 378.26 288.32 375.9C288.07 373.54 287.51 371.12 288.12 368.82C288.374 367.949 288.747 367.118 289.23 366.35C292.23 361.17 296.76 358.51 302.79 359.01Z" fill="black"/>
<path d="M106.22 474.72C100.03 481.89 94.58 484.45 84.89 484.22C78.93 484.08 72.9766 483.77 67.03 483.29C62.9654 482.851 58.8778 482.66 54.79 482.72C42.45 483.2 30.54 488.85 18.23 487.86C16.4098 487.717 14.6098 487.382 12.86 486.86C10.0674 486.091 7.54346 484.56 5.56998 482.44C3.20998 479.77 2.07998 476.23 1.42998 472.73C-1.86002 454.79 7.15997 435.25 22.95 426.12C25.0102 424.789 27.3521 423.957 29.79 423.69C32.1805 423.68 34.5436 424.199 36.71 425.21L36.86 425.27C43.2751 427.91 49.1014 431.798 54 436.71C54.7432 437.561 55.63 438.275 56.62 438.82C57.608 439.193 58.6539 439.39 59.71 439.4L72.85 440.23C75.0762 440.296 77.2888 440.602 79.45 441.14C81.8325 441.972 84.1518 442.974 86.39 444.14C93.46 447.3 101.3 448.14 108.94 449.36C109.676 449.401 110.379 449.682 110.94 450.16C111.245 450.539 111.457 450.984 111.56 451.46C112.634 455.479 112.708 459.699 111.778 463.753C110.847 467.807 108.939 471.572 106.22 474.72V474.72Z" fill="#3F3D56"/>
<path opacity="0.1" d="M36.86 425.28C31.762 430.148 27.3393 435.677 23.71 441.72C17.886 451.693 14.2267 462.78 12.97 474.26C12.4934 478.448 12.4566 482.674 12.86 486.87C10.0674 486.101 7.54346 484.57 5.56998 482.45C3.20998 479.78 2.07998 476.24 1.42998 472.74C-1.86002 454.8 7.15997 435.26 22.95 426.13C25.0102 424.799 27.3521 423.967 29.79 423.7C32.1805 423.69 34.5436 424.209 36.71 425.22L36.86 425.28Z" fill="black"/>
<path d="M291.35 450.16C298.7 449.96 306.95 449.59 312.35 454.54C317.5 459.22 318.18 466.94 318.52 473.89L318.91 481.96C319.03 484.42 319.13 486.96 318.14 489.24C316.38 493.24 311.55 495.17 307.14 494.94C302.73 494.71 298.68 492.78 294.65 491.04C283.709 486.327 272.317 482.738 260.65 480.33C261.03 474.75 261.663 469.197 262.55 463.67C263.16 459.84 263.26 453.43 265.82 450.25C268.53 446.89 272.06 448.71 275.74 449.33C280.904 450.118 286.132 450.396 291.35 450.16V450.16Z" fill="#FBBEBE"/>
<path d="M97.11 369.07C97.11 370.07 95.54 369.07 95.4 368C94.3 359.91 87.88 353.24 80.4 350C72.92 346.76 64.4 346.59 56.3 347.36C44.05 348.52 30.3 353.21 25.82 364.66C24.76 367.34 24.28 370.24 22.98 372.81C21.54 375.63 19.19 377.88 17.63 380.62C14.94 385.36 14.83 391.17 15.8 396.53C18.41 410.83 28.19 423.06 40.04 431.53C51.89 440 65.74 445.06 79.55 449.62C116.067 461.663 153.532 470.612 191.55 476.37C197.71 477.3 203.93 478.16 209.83 480.14C215.11 481.91 220.05 484.56 225.21 486.64C237.21 491.46 250.12 493.18 262.91 494.87C265.09 495.15 267.59 495.35 269.2 493.87C271.28 491.94 270.59 488.58 270 485.81C267.829 475.278 269.65 464.315 275.11 455.05C277.25 451.45 280.03 447.76 279.63 443.59C279.15 438.73 274.31 435.29 269.49 434.51C264.67 433.73 259.77 434.88 254.93 435.51C253.26 435.73 251.44 435.87 249.98 435.02C249.261 434.534 248.608 433.956 248.04 433.3C244.706 430.084 240.438 428.006 235.85 427.364C231.262 426.723 226.588 427.551 222.5 429.73C220.71 430.73 218 428.5 216.14 427.66L195.11 418.14C170.95 407.21 146.67 396.23 121.11 389.31C119.071 388.909 117.132 388.103 115.41 386.94C114.14 385.94 113.23 384.58 112.06 383.47C109.51 381.06 105.96 380.1 102.9 378.39C99.84 376.68 96.41 372.5 97.11 369.07Z" fill="#464353"/>
<path d="M421.32 499.76C417.96 505.99 411.44 509.87 404.44 511.47C402.683 511.866 400.898 512.121 399.1 512.23C390.25 512.78 381.51 510.33 372.98 507.91L361.4 504.65C359.409 504.023 357.368 503.568 355.3 503.29C352.484 503.102 349.656 503.199 346.86 503.58C333.174 504.853 319.377 504.234 305.86 501.74C304.729 501.618 303.643 501.231 302.69 500.61C301.855 499.792 301.114 498.883 300.48 497.9C297.33 494.11 293.94 491.9 297.67 486.9C299.82 484 303.81 482.55 305.48 479.22C307.15 475.89 306.08 471.16 305.09 467.72C303.74 462.97 299.3 460.92 297.71 456.56C296.52 453.27 298.52 449.45 301.53 447.66C304.54 445.87 308.26 445.73 311.73 446.19C315.2 446.65 318.6 447.63 322.09 447.9C332.35 448.72 342.84 443.43 352.69 446.41C354.86 447.07 356.91 448.12 359.11 448.7C363.399 449.659 367.879 449.272 371.94 447.59C373.38 447.05 374.79 446.4 376.19 445.76C378.89 444.354 381.765 443.315 384.74 442.67C394.35 441.02 403.26 447.67 410.51 454.16C412.999 456.226 415.201 458.613 417.06 461.26C419.06 464.38 420.12 468.01 421.06 471.59C423.71 480.84 425.9 491.26 421.32 499.76Z" fill="#3F3D56"/>
<path opacity="0.1" d="M421.32 499.76C417.96 505.99 411.44 509.87 404.44 511.47C407.163 506.18 408.39 500.246 407.99 494.31C407.39 484.8 403.21 475.84 397.88 467.94C394.601 463.077 390.871 458.534 386.74 454.37C383.56 451.17 379.65 448.63 376.23 445.7C378.93 444.294 381.805 443.255 384.78 442.61C394.39 440.96 403.3 447.61 410.55 454.1C413.039 456.166 415.241 458.553 417.1 461.2C419.1 464.32 420.16 467.95 421.1 471.53C423.71 480.84 425.9 491.26 421.32 499.76Z" fill="black"/>
<path d="M54.11 191.26C53.1359 192.28 52.3804 193.488 51.89 194.81C43.8066 213.027 39.0321 232.539 37.79 252.43C37.8117 253.4 37.5882 254.36 37.14 255.22C36.698 255.792 36.2061 256.325 35.67 256.81C35.1832 257.387 34.8199 258.058 34.6026 258.781C34.3853 259.504 34.3187 260.264 34.4068 261.014C34.4949 261.763 34.7359 262.487 35.1148 263.14C35.4938 263.793 36.0027 264.361 36.61 264.81C38.26 261.7 42.21 260.69 45.72 260.42C62.53 259.09 78.95 266.91 95.81 266.32C94.62 262.21 92.91 258.26 91.94 254.1C87.65 235.63 98.35 215.52 91.79 197.73C90.48 194.17 88.29 190.67 84.84 189.11C83.4115 188.533 81.9167 188.137 80.39 187.93C76.13 187.16 67.65 183.87 63.53 185.19C62.01 185.68 61.41 187.11 60.15 187.97C58.24 189.2 55.7 189.65 54.11 191.26Z" fill="#313541"/>
<path d="M304.6 227.66H97.54C93.1383 227.66 89.57 231.228 89.57 235.63V361.69C89.57 366.092 93.1383 369.66 97.54 369.66H304.6C309.002 369.66 312.57 366.092 312.57 361.69V235.63C312.57 231.228 309.002 227.66 304.6 227.66Z" fill="#3F3D56"/>
<path d="M200.57 304.66C203.884 304.66 206.57 301.974 206.57 298.66C206.57 295.346 203.884 292.66 200.57 292.66C197.256 292.66 194.57 295.346 194.57 298.66C194.57 301.974 197.256 304.66 200.57 304.66Z" fill="white"/>
<path d="M119.29 14.5C115.93 16.93 113.63 20.42 111.29 23.77C106.98 29.96 102.1 36.14 95.21 39.59C92.6 40.9 89.62 41.89 87.89 44.17C86.8632 45.7119 86.1967 47.4653 85.94 49.3C84.6201 55.7512 83.9302 62.3154 83.88 68.9C83.88 72.18 84.02 75.56 85.47 78.54C86.84 81.34 89.31 83.71 89.82 86.76C90.21 89.14 89.33 91.51 89.02 93.9C88.71 96.29 89.25 99.12 91.46 100.26C92.6508 100.708 93.8944 101 95.16 101.13C101.81 102.61 104.04 110.41 105.05 116.86C107.31 116.73 108.33 114.14 108.8 112.03L115.73 81.22C116.48 77.88 117.73 74.01 121.06 72.84C123.29 72.07 125.73 72.79 128.06 72.99C137.21 73.74 144.95 66.67 153.9 64.72C156.765 64.1418 159.694 63.9468 162.61 64.14C169.67 64.49 177.88 67.39 179.38 73.98C179.63 75.05 179.78 76.33 180.78 76.86C181.78 77.39 182.83 76.94 183.88 76.86C188.36 76.41 191 81.45 192.29 85.57L196.99 100.57C197.69 102.84 198.87 105.51 201.33 105.8C203.6 106.08 205.53 103.93 205.87 101.8C206.21 99.67 205.47 97.46 204.98 95.32C202.77 85.47 206.15 75.39 208.21 65.52C210.27 55.65 210.64 44.31 203.73 36.71C201.22 33.96 197.92 31.91 195.58 29.01C193.4 26.29 192.17 22.95 189.91 20.28C183.66 12.91 167.63 7.22 157.8 6.28C146.57 5.06 128.37 7.91001 119.29 14.5Z" fill="#3F3D56"/>
<g opacity="0.1">
<path opacity="0.1" d="M201.37 98.8C198.91 98.5 197.73 95.8 197.03 93.57C195.463 88.5634 193.897 83.5634 192.33 78.57C191.04 74.44 188.4 69.4 183.92 69.86C182.87 69.97 181.74 70.38 180.82 69.86C179.9 69.34 179.67 68.05 179.42 66.98C177.92 60.38 169.71 57.49 162.65 57.14C159.734 56.9485 156.806 57.1402 153.94 57.71C144.99 59.71 137.25 66.71 128.1 65.98C125.74 65.79 123.3 65.07 121.1 65.84C117.73 67 116.52 70.84 115.77 74.22L108.84 105.02C108.37 107.14 107.35 109.73 105.09 109.85C104.09 103.41 101.85 95.61 95.2 94.13C93.936 93.9907 92.6936 93.6986 91.5 93.26C90.63 92.7848 89.9489 92.0261 89.57 91.11C89.39 92.04 89.18 92.97 89.06 93.9C88.76 96.28 89.29 99.12 91.5 100.26C92.6908 100.708 93.9344 101 95.2 101.13C101.85 102.61 104.08 110.41 105.09 116.86C107.35 116.73 108.37 114.14 108.84 112.03L115.77 81.22C116.52 77.88 117.77 74.01 121.1 72.84C123.33 72.07 125.77 72.79 128.1 72.99C137.25 73.74 144.99 66.67 153.94 64.72C156.805 64.1418 159.734 63.9468 162.65 64.14C169.71 64.49 177.92 67.39 179.42 73.98C179.67 75.05 179.82 76.33 180.82 76.86C181.82 77.39 182.87 76.94 183.92 76.86C188.4 76.41 191.04 81.45 192.33 85.57C193.89 90.5767 195.457 95.5767 197.03 100.57C197.73 102.84 198.91 105.51 201.37 105.8C203.64 106.08 205.57 103.93 205.91 101.8C206.064 100.008 205.86 98.2028 205.31 96.49C204.953 97.2199 204.389 97.8283 203.688 98.2392C202.988 98.6501 202.181 98.8451 201.37 98.8V98.8Z" fill="black"/>
<path opacity="0.1" d="M89.83 79.76C89.32 76.71 86.83 74.34 85.48 71.54C84.6121 69.6515 84.1099 67.6155 84 65.54C84 66.66 83.9 67.78 83.89 68.91C83.89 72.19 84.03 75.57 85.48 78.55C86.59 80.82 88.42 82.82 89.34 85.13C89.8251 83.3841 89.9911 81.5649 89.83 79.76V79.76Z" fill="black"/>
<path opacity="0.1" d="M208.25 58.48C206.43 67.2 203.59 76.08 204.47 84.82C205.04 78.37 206.92 71.88 208.25 65.48C209.359 60.6199 209.75 55.6235 209.41 50.65C209.193 53.2823 208.805 55.8978 208.25 58.48Z" fill="black"/>
</g>
<defs>
<linearGradient id="paint0_linear" x1="212.07" y1="511.66" x2="212.07" y2="0.459973" gradientUnits="userSpaceOnUse">
<stop stop-color="#808080" stop-opacity="0.25"/>
<stop offset="0.54" stop-color="#808080" stop-opacity="0.12"/>
<stop offset="1" stop-color="#808080" stop-opacity="0.1"/>
</linearGradient>
</defs>
</svg>
